<?xml version="1.0" encoding="UTF-8" ?>
<!DOCTYPE svg PUBLIC "-//W3C//DTD SVG 1.1//EN" "http://www.w3.org/Graphics/SVG/1.1/DTD/svg11.dtd">
<svg width="512pt" height="512pt" viewBox="0 0 512 512" version="1.1" xmlns="http://www.w3.org/2000/svg">
<g id="#ffffffff">
</g>
<g id="#000000ff">
<path fill="#000000" opacity="1.00" d=" M 128.93 78.10 C 130.76 78.02 132.60 78.07 134.45 78.04 C 134.51 118.68 134.44 159.33 134.48 199.97 C 135.86 202.89 138.02 205.49 140.41 207.70 C 179.70 247.04 219.06 286.29 258.32 325.67 C 299.75 284.29 341.16 242.89 382.52 201.46 C 382.75 160.33 382.53 119.19 382.63 78.05 C 384.46 78.06 386.30 78.04 388.15 78.07 C 388.17 119.79 388.17 161.50 388.15 203.21 C 387.66 204.56 386.38 205.39 385.45 206.41 C 365.92 225.95 346.38 245.47 326.86 265.01 C 347.67 285.82 368.46 306.67 389.31 327.44 C 366.55 350.60 343.40 373.41 320.49 396.44 C 299.74 417.13 279.10 437.92 258.30 458.55 C 214.72 414.84 171.03 371.22 127.37 327.59 C 148.14 306.67 169.07 285.91 189.86 265.01 C 169.55 244.70 149.29 224.30 128.87 204.10 C 128.97 162.10 128.85 120.09 128.93 78.10 M 135.21 327.62 C 176.28 368.59 217.26 409.64 258.28 450.65 C 299.49 409.78 340.40 368.56 381.52 327.57 C 362.05 308.02 342.54 288.52 323.00 269.05 C 301.65 289.98 280.62 311.33 259.43 332.45 C 259.09 332.68 258.40 333.14 258.06 333.37 C 236.85 311.73 215.24 290.45 193.84 268.99 C 174.23 288.45 154.67 308.00 135.21 327.62 Z" />
</g>
</svg>
